PathFileType	4	(X/Y/Z)	s02c0401.trc
DataRate	CameraRate	NumFrames	NumMarkers	Units	OrigDataRate	OrigDataStartFrame	OrigNumFrames
200	200	4	50	mm	200	1500	2000
Frame#	Time	racr			lacr			c7			jug			rlel			rdr			llel			ldr			s2			lic			ric			lasi			rasi			rpsi			lpsi			rgt			lgt			rth1			rth2			rth3			rth4			rlfc			rmfc			rsh1			rsh2			rsh3			rsh4			rlmal			rmmal			rtoe			rmt5			rmt1			lth1			lth2			lth4			lth3			llfc			lmfc			lsh1			lsh2			lsh3			lsh4			llmal			lmmal			lcal			ltoe			lmt5			SBIKE			LBIKE			RBIKE			
		X1	Y1	Z1	X2	Y2	Z2	X3	Y3	Z3	X4	Y4	Z4	X5	Y5	Z5	X6	Y6	Z6	X7	Y7	Z7	X8	Y8	Z8	X9	Y9	Z9	X10	Y10	Z10	X11	Y11	Z11	X12	Y12	Z12	X13	Y13	Z13	X14	Y14	Z14	X15	Y15	Z15	X16	Y16	Z16	X17	Y17	Z17	X18	Y18	Z18	X19	Y19	Z19	X20	Y20	Z20	X21	Y21	Z21	X22	Y22	Z22	X23	Y23	Z23	X24	Y24	Z24	X25	Y25	Z25	X26	Y26	Z26	X27	Y27	Z27	X28	Y28	Z28	X29	Y29	Z29	X30	Y30	Z30	X31	Y31	Z31	X32	Y32	Z32	X33	Y33	Z33	X34	Y34	Z34	X35	Y35	Z35	X36	Y36	Z36	X37	Y37	Z37	X38	Y38	Z38	X39	Y39	Z39	X40	Y40	Z40	X41	Y41	Z41	X42	Y42	Z42	X43	Y43	Z43	X44	Y44	Z44	X45	Y45	Z45	X46	Y46	Z46	X47	Y47	Z47	X48	Y48	Z48	X49	Y49	Z49	X50	Y50	Z50	
1500	7.5000	813.621735	1166.282661	-173.807144	789.127237	1210.600970	-538.481301	812.647175	1248.414276	-361.423110	731.964457	1132.856712	-376.245459	615.198749	1020.907479	-52.079995	712.461174	879.200789	-135.655213	597.025305	1024.284836	-660.991718	701.448402	881.532319	-539.324337	263.091513	1163.340975	-298.014466	374.412969	1178.525438	-456.335036	414.189096	1126.721743	-171.150968	413.763209	1137.329486	-439.950384	449.065998	1088.107542	-207.530221	306.442659	1193.479892	-243.796383	297.647384	1211.660481	-323.580054	361.414838	1035.040880	-140.462975	332.122257	1096.387336	-496.624222	391.275886	953.177840	-137.929252	416.637067	868.523330	-143.932197	404.763893	785.998670	-123.385907	445.225498	868.972471	-168.610228	383.268031	651.289933	-157.713896	361.555671	633.868104	-258.838329	349.705656	551.684691	-129.126957	343.465217	463.511011	-142.443768	298.530860	390.325302	-133.377319	354.354332	461.025188	-180.087569	254.929144	280.445918	-136.523790	260.910356	295.626392	-214.664138	382.549146	94.319205	-199.595061	295.065511	149.643259	-128.198075	316.994647	153.000377	-236.817900	457.384137	1026.920958	-501.816062	538.763429	995.094748	-495.409610	555.689784	1020.323303	-474.078758	593.028463	924.867380	-496.934385	675.270618	854.499454	-467.364310	655.131315	829.134282	-363.519756	603.436032	782.199572	-489.833141	543.650385	721.065499	-476.034214	457.903784	693.504100	-486.271086	554.090215	705.552614	-438.537244	352.002217	645.797689	-481.663992	362.850880	631.487032	-401.765078	274.680418	660.721779	-442.611891	429.870836	419.765582	-441.285944	351.934398	492.719111	-502.242372	-164.503965	858.531537	-313.708306	33.104891	82.841495	-515.183132	33.101411	82.258950	-115.000147	
1501	7.5050	814.256768	1167.023135	-176.363276	788.926008	1207.635925	-540.815219	812.559324	1247.474626	-364.406361	732.454647	1131.381222	-378.140046	616.817951	1021.876333	-52.710297	712.711801	879.311709	-135.775678	595.999669	1022.585802	-663.236766	701.145509	881.791698	-539.745483	263.468241	1165.301949	-296.985022	373.593598	1180.190869	-455.927724	415.150720	1128.557549	-170.617806	413.262232	1139.008700	-439.746422	449.371164	1090.194817	-206.823295	306.979425	1195.786041	-242.540616	297.959327	1213.904411	-322.709748	361.167788	1036.733468	-141.218379	331.454076	1098.924129	-495.723090	390.241158	955.118748	-137.251834	414.885938	870.133393	-142.565725	401.910986	787.676261	-122.002260	443.496974	870.224000	-167.238125	379.587295	653.049168	-156.238957	357.963471	636.850840	-258.274168	344.830049	553.969646	-128.226732	337.224031	465.973539	-141.681759	292.572429	392.896252	-132.518589	349.098119	463.147755	-179.252673	247.853111	283.203692	-135.795573	254.208158	298.493108	-213.846323	371.453714	94.239191	-199.425888	285.182153	151.338509	-128.053863	307.003531	154.139199	-236.543834	456.407195	1029.635560	-501.786877	537.178285	998.526518	-497.011480	555.105070	1023.719906	-475.494186	592.169871	928.478312	-497.645409	672.140906	860.506318	-471.613230	657.791777	834.126510	-365.442510	606.921859	786.276771	-491.249309	548.731480	723.612750	-477.202636	463.564748	694.096930	-486.603747	559.859913	708.397211	-440.444122	357.432270	643.672152	-481.113878	369.216630	629.646089	-402.104421	279.449937	657.163640	-441.496929	441.585974	420.693346	-441.953816	361.425104	491.603581	-502.396465	-164.561014	858.585458	-314.217741	33.102629	82.812675	-515.197152	33.105527	82.245277	-114.986729	
1502	7.5100	814.770970	1167.880905	-178.617908	788.797660	1204.465510	-543.053900	812.489376	1246.241624	-367.420491	732.792735	1129.712729	-379.775917	618.332099	1023.104748	-53.472949	712.951912	879.442922	-135.762761	594.958753	1020.830711	-665.369506	701.028244	881.915901	-540.005805	264.401304	1167.402648	-295.888782	372.932158	1182.051999	-455.546793	415.725010	1130.814931	-170.206689	412.972636	1140.778892	-439.495011	449.344926	1092.526115	-206.173681	307.510145	1198.603471	-241.639794	298.344063	1216.312963	-322.004371	361.096721	1039.145034	-140.344115	330.727412	1101.351384	-494.725860	389.243332	957.424739	-136.469610	413.428399	872.218985	-141.162762	399.497709	789.871677	-120.813243	442.210879	871.912942	-165.746443	376.595864	654.879013	-155.436290	356.056079	638.688382	-257.636822	340.902553	556.391384	-127.607652	332.210608	468.469532	-141.061963	286.578123	396.072009	-132.146008	344.342281	465.612660	-178.519907	240.513076	286.619349	-135.404764	247.543548	301.927111	-213.408103	360.542977	95.355913	-199.019812	275.264041	153.836932	-127.944331	295.972007	155.273000	-237.578473	455.065602	1032.162438	-501.798619	535.894892	1001.435443	-498.030652	554.091743	1026.771481	-476.930902	591.344583	931.436437	-499.061058	666.430534	866.170447	-477.157078	660.105128	838.060965	-367.549812	609.389260	789.485298	-493.057762	552.751702	726.092374	-479.287947	468.083062	694.331648	-487.263524	564.454040	710.660549	-441.992396	362.060466	641.141361	-480.907919	374.943742	627.407689	-402.075153	283.597442	652.549178	-440.777391	453.232947	421.419631	-442.640065	370.677522	489.910625	-502.836111	-164.564125	858.570572	-314.267458	33.102396	82.740600	-515.225169	33.100073	82.247725	-115.005855	
1503	7.5150	815.431509	1168.422042	-181.115943	788.790862	1201.125565	-545.116147	812.442684	1244.864821	-370.261654	733.422598	1127.756809	-381.434892	619.685279	1024.456368	-54.253160	713.189487	879.592581	-135.582150	593.911386	1019.047619	-667.406733	700.455765	882.079231	-540.518327	264.522176	1170.235388	-294.851950	372.386332	1183.637609	-455.036916	416.103103	1133.567321	-169.649666	412.806502	1142.527258	-439.298491	449.131512	1095.573300	-204.880755	307.961287	1201.683401	-241.050959	299.127535	1219.064984	-321.245453	360.903282	1042.129817	-138.866455	329.942644	1103.678294	-493.598920	388.362148	959.935876	-135.542142	412.238518	874.593225	-139.931529	397.685765	792.311263	-119.649637	441.178853	874.112802	-164.486578	374.824000	656.985281	-154.525971	354.647327	641.076348	-256.702336	337.873260	559.016415	-127.235823	327.841867	471.168744	-140.690892	281.152021	399.476825	-131.943832	340.110424	468.104935	-178.206365	232.996206	290.743650	-135.209476	240.753417	305.952768	-213.257465	349.688504	97.133633	-198.792135	265.362482	157.284759	-127.977255	286.185949	158.005240	-237.516878	453.534585	1034.556314	-501.991592	534.467782	1003.938972	-499.158216	552.859980	1029.396951	-478.420260	589.896940	934.178444	-500.887290	666.105391	869.585138	-479.725104	661.993966	840.904134	-369.885462	610.627279	791.780141	-495.088520	555.474940	727.053164	-480.951366	471.229897	693.910985	-488.116392	567.832082	711.789760	-443.876742	365.795067	637.529403	-480.354324	379.865974	624.414762	-402.112077	286.738430	646.837091	-440.018250	464.663037	421.899910	-443.012667	379.342963	487.468381	-503.137297	-164.733283	858.383763	-314.878859	33.083386	82.671701	-515.251098	33.071100	82.261084	-115.013945	
